<svg xmlns="http://www.w3.org/2000/svg" xmlns:xlink="http://www.w3.org/1999/xlink" width="1920" zoomAndPan="magnify" viewBox="0 0 1440 809.999993" height="1080" preserveAspectRatio="xMidYMid meet" version="1.0"><defs><g/><clipPath id="204076c2c7"><path d="M 385.265625 310.488281 L 1054.734375 310.488281 L 1054.734375 499.511719 L 385.265625 499.511719 Z M 385.265625 310.488281 " clip-rule="nonzero"/></clipPath><clipPath id="67f5caef43"><path d="M 407.765625 310.488281 L 1032.234375 310.488281 C 1038.203125 310.488281 1043.925781 312.859375 1048.144531 317.082031 C 1052.363281 321.300781 1054.734375 327.023438 1054.734375 332.988281 L 1054.734375 477.011719 C 1054.734375 482.976562 1052.363281 488.699219 1048.144531 492.917969 C 1043.925781 497.140625 1038.203125 499.511719 1032.234375 499.511719 L 407.765625 499.511719 C 401.796875 499.511719 396.074219 497.140625 391.855469 492.917969 C 387.636719 488.699219 385.265625 482.976562 385.265625 477.011719 L 385.265625 332.988281 C 385.265625 327.023438 387.636719 321.300781 391.855469 317.082031 C 396.074219 312.859375 401.796875 310.488281 407.765625 310.488281 Z M 407.765625 310.488281 " clip-rule="nonzero"/></clipPath><clipPath id="b5c6f8e886"><path d="M 385.265625 310.492188 L 1054.289062 310.492188 L 1054.289062 500 L 385.265625 500 Z M 385.265625 310.492188 " clip-rule="nonzero"/></clipPath><clipPath id="1046442895"><path d="M 407.765625 310.492188 L 1032.214844 310.492188 C 1038.183594 310.492188 1043.90625 312.863281 1048.125 317.082031 C 1052.34375 321.300781 1054.714844 327.023438 1054.714844 332.992188 L 1054.714844 477.007812 C 1054.714844 482.972656 1052.34375 488.695312 1048.125 492.914062 C 1043.90625 497.136719 1038.183594 499.503906 1032.214844 499.503906 L 407.765625 499.503906 C 401.796875 499.503906 396.074219 497.136719 391.855469 492.914062 C 387.636719 488.695312 385.265625 482.972656 385.265625 477.007812 L 385.265625 332.992188 C 385.265625 327.023438 387.636719 321.300781 391.855469 317.082031 C 396.074219 312.863281 401.796875 310.492188 407.765625 310.492188 Z M 407.765625 310.492188 " clip-rule="nonzero"/></clipPath></defs><g clip-path="url(#204076c2c7)"><g clip-path="url(#67f5caef43)"><path fill="#ffffff" d="M 385.265625 310.488281 L 1054.734375 310.488281 L 1054.734375 499.511719 L 385.265625 499.511719 Z M 385.265625 310.488281 " fill-opacity="1" fill-rule="nonzero"/></g></g><g clip-path="url(#b5c6f8e886)"><g clip-path="url(#1046442895)"><path stroke-linecap="butt" transform="matrix(1.608227, 0, 0, 1.608227, 385.265524, 310.491597)" fill="none" stroke-linejoin="miter" d="M 13.990626 0.000367063 L 402.274894 0.000367063 C 405.98628 0.000367063 409.544643 1.47472 412.167874 4.09795 C 414.791104 6.721181 416.265457 10.279544 416.265457 13.99093 L 416.265457 103.540248 C 416.265457 107.249204 414.791104 110.807568 412.167874 113.430798 C 409.544643 116.056458 405.98628 117.528382 402.274894 117.528382 L 13.990626 117.528382 C 10.27924 117.528382 6.720877 116.056458 4.097646 113.430798 C 1.474416 110.807568 0.0000630259 107.249204 0.0000630259 103.540248 L 0.0000630259 13.99093 C 0.0000630259 10.279544 1.474416 6.721181 4.097646 4.09795 C 6.720877 1.47472 10.27924 0.000367063 13.990626 0.000367063 Z M 13.990626 0.000367063 " stroke="#b6abd9" stroke-width="2.798112" stroke-opacity="1" stroke-miterlimit="4"/></g></g><g fill="#1a3057" fill-opacity="1"><g transform="translate(438.346592, 431.345862)"><g><path d="M 47.25 -6.671875 C 42.09375 -2.390625 36.207031 -0.25 29.59375 -0.25 C 22.113281 -0.25 15.71875 -2.90625 10.40625 -8.21875 C 5.09375 -13.53125 2.4375 -19.925781 2.4375 -27.40625 C 2.4375 -34.9375 5.09375 -41.359375 10.40625 -46.671875 C 15.71875 -51.984375 22.113281 -54.640625 29.59375 -54.640625 C 36.257812 -54.640625 42.144531 -52.472656 47.25 -48.140625 L 39.109375 -40.09375 C 36.347656 -42.207031 33.175781 -43.265625 29.59375 -43.265625 C 25.257812 -43.265625 21.546875 -41.71875 18.453125 -38.625 C 15.367188 -35.53125 13.828125 -31.789062 13.828125 -27.40625 C 13.828125 -23.0625 15.367188 -19.347656 18.453125 -16.265625 C 21.546875 -13.171875 25.257812 -11.625 29.59375 -11.625 C 33.175781 -11.625 36.347656 -12.679688 39.109375 -14.796875 Z M 47.25 -6.671875 "/></g></g></g><g fill="#1a3057" fill-opacity="1"><g transform="translate(490.463493, 431.345862)"><g><path d="M 15.125 -11.390625 L 40.578125 -11.390625 L 40.578125 0 L 2.4375 0 L 2.4375 -52.859375 L 15.125 -52.859375 Z M 15.125 -11.390625 "/></g></g></g><g fill="#1a3057" fill-opacity="1"><g transform="translate(532.010638, 431.345862)"><g><path d="M 1.21875 -52.859375 L 13.90625 -52.859375 L 13.90625 0 L 1.21875 0 Z M 1.21875 -52.859375 "/></g></g></g><g fill="#1a3057" fill-opacity="1"><g transform="translate(547.133481, 431.345862)"><g><path d="M 47.25 -6.671875 C 42.09375 -2.390625 36.207031 -0.25 29.59375 -0.25 C 22.113281 -0.25 15.71875 -2.90625 10.40625 -8.21875 C 5.09375 -13.53125 2.4375 -19.925781 2.4375 -27.40625 C 2.4375 -34.9375 5.09375 -41.359375 10.40625 -46.671875 C 15.71875 -51.984375 22.113281 -54.640625 29.59375 -54.640625 C 36.257812 -54.640625 42.144531 -52.472656 47.25 -48.140625 L 39.109375 -40.09375 C 36.347656 -42.207031 33.175781 -43.265625 29.59375 -43.265625 C 25.257812 -43.265625 21.546875 -41.71875 18.453125 -38.625 C 15.367188 -35.53125 13.828125 -31.789062 13.828125 -27.40625 C 13.828125 -23.0625 15.367188 -19.347656 18.453125 -16.265625 C 21.546875 -13.171875 25.257812 -11.625 29.59375 -11.625 C 33.175781 -11.625 36.347656 -12.679688 39.109375 -14.796875 Z M 47.25 -6.671875 "/></g></g></g><g fill="#1a3057" fill-opacity="1"><g transform="translate(599.250382, 431.345862)"><g><path d="M 39.4375 0 L 20.890625 -19.671875 L 15.125 -13.828125 L 15.125 0 L 2.4375 0 L 2.4375 -52.859375 L 15.125 -52.859375 L 15.125 -31.796875 L 36.1875 -52.859375 L 54.15625 -52.859375 L 29.921875 -28.703125 L 57.40625 0 Z M 39.4375 0 "/></g></g></g><g fill="#1a3057" fill-opacity="1"><g transform="translate(657.465183, 431.345862)"><g/></g></g><g fill="#1a3057" fill-opacity="1"><g transform="translate(678.604635, 431.345862)"><g><path d="M 42.609375 -40.171875 L 28.859375 -40.171875 L 28.859375 0 L 16.1875 0 L 16.1875 -40.171875 L 2.4375 -40.171875 L 2.4375 -52.859375 L 42.609375 -52.859375 Z M 42.609375 -40.171875 "/></g></g></g><g fill="#1a3057" fill-opacity="1"><g transform="translate(722.916184, 431.345862)"><g><path d="M 28.453125 -52.609375 C 35.992188 -52.609375 42.421875 -49.953125 47.734375 -44.640625 C 53.046875 -39.328125 55.703125 -32.90625 55.703125 -25.375 C 55.703125 -17.832031 53.046875 -11.40625 47.734375 -6.09375 C 42.421875 -0.78125 35.992188 1.875 28.453125 1.875 C 20.921875 1.875 14.5 -0.78125 9.1875 -6.09375 C 3.875 -11.40625 1.21875 -17.832031 1.21875 -25.375 C 1.21875 -32.90625 3.875 -39.328125 9.1875 -44.640625 C 14.5 -49.953125 20.921875 -52.609375 28.453125 -52.609375 Z M 39.6875 -14.140625 C 42.769531 -17.234375 44.3125 -20.976562 44.3125 -25.375 C 44.3125 -29.757812 42.769531 -33.5 39.6875 -36.59375 C 36.59375 -39.675781 32.847656 -41.21875 28.453125 -41.21875 C 24.066406 -41.21875 20.328125 -39.675781 17.234375 -36.59375 C 14.148438 -33.5 12.609375 -29.757812 12.609375 -25.375 C 12.609375 -20.976562 14.148438 -17.234375 17.234375 -14.140625 C 20.429688 -11.054688 24.171875 -9.515625 28.453125 -9.515625 C 32.742188 -9.515625 36.488281 -11.054688 39.6875 -14.140625 Z M 39.6875 -14.140625 "/></g></g></g><g fill="#1a3057" fill-opacity="1"><g transform="translate(779.830103, 431.345862)"><g/></g></g><g fill="#1a3057" fill-opacity="1"><g transform="translate(800.969556, 431.345862)"><g><path d="M 46.59375 -34.796875 C 46.59375 -31.378906 45.722656 -28.207031 43.984375 -25.28125 C 41.867188 -21.8125 38.890625 -19.398438 35.046875 -18.046875 L 46.421875 0 L 32.203125 0 L 21.140625 -16.828125 L 15.125 -16.828125 L 15.125 0 L 2.4375 0 L 2.4375 -52.859375 L 27.734375 -52.859375 C 33.742188 -52.859375 38.507812 -50.878906 42.03125 -46.921875 C 45.070312 -43.453125 46.59375 -39.410156 46.59375 -34.796875 Z M 15.125 -41.46875 L 15.125 -28.21875 L 27.640625 -28.21875 C 29.378906 -28.21875 30.765625 -28.460938 31.796875 -28.953125 C 32.660156 -29.429688 33.28125 -29.890625 33.65625 -30.328125 C 34.195312 -30.984375 34.609375 -31.742188 34.890625 -32.609375 C 35.097656 -33.367188 35.203125 -34.097656 35.203125 -34.796875 C 35.203125 -35.554688 35.097656 -36.316406 34.890625 -37.078125 C 34.554688 -37.941406 34.09375 -38.703125 33.5 -39.359375 C 32.3125 -40.765625 30.390625 -41.46875 27.734375 -41.46875 Z M 15.125 -41.46875 "/></g></g></g><g fill="#1a3057" fill-opacity="1"><g transform="translate(849.996832, 431.345862)"><g><path d="M 15.125 -20.734375 L 15.125 -11.390625 L 39.359375 -11.390625 L 39.359375 0 L 2.4375 0 L 2.4375 -52.859375 L 39.359375 -52.859375 L 39.359375 -41.46875 L 15.125 -41.46875 L 15.125 -32.125 L 35.703125 -32.125 L 35.703125 -20.734375 Z M 15.125 -20.734375 "/></g></g></g><g fill="#1a3057" fill-opacity="1"><g transform="translate(891.787907, 431.345862)"><g><path d="M 43.015625 0 L 39.1875 -7.40625 L 19.265625 -7.40625 L 15.453125 0 L 0.8125 0 L 29.265625 -52.859375 L 57.65625 0 Z M 34.0625 -17.3125 L 29.265625 -26.59375 L 24.390625 -17.3125 Z M 34.0625 -17.3125 "/></g></g></g><g fill="#1a3057" fill-opacity="1"><g transform="translate(950.246667, 431.345862)"><g><path d="M 22.53125 -52.53125 C 29.789062 -52.53125 36.019531 -49.953125 41.21875 -44.796875 C 46.375 -39.648438 48.953125 -33.414062 48.953125 -26.09375 C 48.953125 -18.832031 46.375 -12.601562 41.21875 -7.40625 C 36.019531 -2.25 29.789062 0.328125 22.53125 0.328125 L 2.4375 0.328125 L 2.4375 -52.53125 Z M 32.609375 -16.015625 C 35.367188 -18.785156 36.75 -22.144531 36.75 -26.09375 C 36.75 -30 35.367188 -33.390625 32.609375 -36.265625 C 29.835938 -39.023438 26.445312 -40.40625 22.4375 -40.40625 L 15.125 -40.40625 L 15.125 -11.875 L 22.53125 -11.875 C 26.476562 -11.875 29.835938 -13.253906 32.609375 -16.015625 Z M 32.609375 -16.015625 "/></g></g></g></svg>